<svg xmlns="http://www.w3.org/2000/svg" version="1.1" xmlns:xlink="http://www.w3.org/1999/xlink" xmlns:svgjs="http://svgjs.com/svgjs" width="1440" height="560" preserveAspectRatio="none" viewBox="0 0 1440 560"><g mask="url(&quot;#SvgjsMask1074&quot;)" fill="none"><rect width="1440" height="560" x="0" y="0" fill="url(#SvgjsLinearGradient1075)"></rect><path d="M117.18 48.63L181.27 85.63L181.27 159.63L117.18 196.63L53.09 159.63L53.09 85.63zM53.09 159.63L117.18 196.63L117.18 270.63L53.09 307.63L-11 270.63L-11 196.63zM117.18 270.63L181.27 307.63L181.27 381.63L117.18 418.63L53.09 381.63L53.09 307.63zM53.09 381.63L117.18 418.63L117.18 492.63L53.09 529.63L-11 492.63L-11 418.63zM181.27 381.63L245.35 418.63L245.35 492.63L181.27 529.63L117.18 492.63L117.18 418.63zM373.53 48.63L437.62 85.63L437.62 159.63L373.53 196.63L309.44 159.63L309.44 85.63zM373.53 270.63L437.62 307.63L437.62 381.63L373.53 418.63L309.44 381.63L309.44 307.63zM309.44 381.63L373.53 418.63L373.53 492.63L309.44 529.63L245.35 492.63L245.35 418.63zM437.62 -62.37L501.7 -25.37L501.7 48.63L437.62 85.63L373.53 48.63L373.53 -25.37zM437.62 159.63L501.7 196.63L501.7 270.63L437.62 307.63L373.53 270.63L373.53 196.63zM501.7 492.63L565.79 529.63L565.79 603.63L501.7 640.63L437.62 603.63L437.62 529.63zM565.79 -62.37L629.88 -25.37L629.88 48.63L565.79 85.63L501.7 48.63L501.7 -25.37zM629.88 48.63L693.97 85.63L693.97 159.63L629.88 196.63L565.79 159.63L565.79 85.63zM565.79 159.63L629.88 196.63L629.88 270.63L565.79 307.63L501.7 270.63L501.7 196.63zM629.88 270.63L693.97 307.63L693.97 381.63L629.88 418.63L565.79 381.63L565.79 307.63zM758.05 48.63L822.14 85.63L822.14 159.63L758.05 196.63L693.97 159.63L693.97 85.63zM758.05 270.63L822.14 307.63L822.14 381.63L758.05 418.63L693.97 381.63L693.97 307.63zM886.23 492.63L950.32 529.63L950.32 603.63L886.23 640.63L822.14 603.63L822.14 529.63zM1014.41 270.63L1078.49 307.63L1078.49 381.63L1014.41 418.63L950.32 381.63L950.32 307.63zM1078.49 -62.37L1142.58 -25.37L1142.58 48.63L1078.49 85.63L1014.41 48.63L1014.41 -25.37zM1206.67 -62.37L1270.76 -25.37L1270.76 48.63L1206.67 85.63L1142.58 48.63L1142.58 -25.37zM1206.67 159.63L1270.76 196.63L1270.76 270.63L1206.67 307.63L1142.58 270.63L1142.58 196.63zM1270.76 270.63L1334.84 307.63L1334.84 381.63L1270.76 418.63L1206.67 381.63L1206.67 307.63zM1206.67 381.63L1270.76 418.63L1270.76 492.63L1206.67 529.63L1142.58 492.63L1142.58 418.63zM1270.76 492.63L1334.84 529.63L1334.84 603.63L1270.76 640.63L1206.67 603.63L1206.67 529.63zM1398.93 48.63L1463.02 85.63L1463.02 159.63L1398.93 196.63L1334.84 159.63L1334.84 85.63zM1398.93 492.63L1463.02 529.63L1463.02 603.63L1398.93 640.63L1334.84 603.63L1334.84 529.63zM1463.02 -62.37L1527.11 -25.37L1527.11 48.63L1463.02 85.63L1398.93 48.63L1398.93 -25.37zM1463.02 381.63L1527.11 418.63L1527.11 492.63L1463.02 529.63L1398.93 492.63L1398.93 418.63zM1527.11 492.63L1591.19 529.63L1591.19 603.63L1527.11 640.63L1463.02 603.63L1463.02 529.63z" stroke="#03305d" stroke-width="2"></path><path d="M109.78 48.63 a7.4 7.4 0 1 0 14.8 0 a7.4 7.4 0 1 0 -14.8 0zM173.87 85.63 a7.4 7.4 0 1 0 14.8 0 a7.4 7.4 0 1 0 -14.8 0zM173.87 159.63 a7.4 7.4 0 1 0 14.8 0 a7.4 7.4 0 1 0 -14.8 0zM109.78 196.63 a7.4 7.4 0 1 0 14.8 0 a7.4 7.4 0 1 0 -14.8 0zM45.69 159.63 a7.4 7.4 0 1 0 14.8 0 a7.4 7.4 0 1 0 -14.8 0zM45.69 85.63 a7.4 7.4 0 1 0 14.8 0 a7.4 7.4 0 1 0 -14.8 0zM109.78 270.63 a7.4 7.4 0 1 0 14.8 0 a7.4 7.4 0 1 0 -14.8 0zM45.69 307.63 a7.4 7.4 0 1 0 14.8 0 a7.4 7.4 0 1 0 -14.8 0zM-18.4 270.63 a7.4 7.4 0 1 0 14.8 0 a7.4 7.4 0 1 0 -14.8 0zM-18.4 196.63 a7.4 7.4 0 1 0 14.8 0 a7.4 7.4 0 1 0 -14.8 0zM173.87 307.63 a7.4 7.4 0 1 0 14.8 0 a7.4 7.4 0 1 0 -14.8 0zM173.87 381.63 a7.4 7.4 0 1 0 14.8 0 a7.4 7.4 0 1 0 -14.8 0zM109.78 418.63 a7.4 7.4 0 1 0 14.8 0 a7.4 7.4 0 1 0 -14.8 0zM45.69 381.63 a7.4 7.4 0 1 0 14.8 0 a7.4 7.4 0 1 0 -14.8 0zM109.78 492.63 a7.4 7.4 0 1 0 14.8 0 a7.4 7.4 0 1 0 -14.8 0zM45.69 529.63 a7.4 7.4 0 1 0 14.8 0 a7.4 7.4 0 1 0 -14.8 0zM-18.4 492.63 a7.4 7.4 0 1 0 14.8 0 a7.4 7.4 0 1 0 -14.8 0zM-18.4 418.63 a7.4 7.4 0 1 0 14.8 0 a7.4 7.4 0 1 0 -14.8 0zM237.95 418.63 a7.4 7.4 0 1 0 14.8 0 a7.4 7.4 0 1 0 -14.8 0zM237.95 492.63 a7.4 7.4 0 1 0 14.8 0 a7.4 7.4 0 1 0 -14.8 0zM173.87 529.63 a7.4 7.4 0 1 0 14.8 0 a7.4 7.4 0 1 0 -14.8 0zM366.13 48.63 a7.4 7.4 0 1 0 14.8 0 a7.4 7.4 0 1 0 -14.8 0zM430.22 85.63 a7.4 7.4 0 1 0 14.8 0 a7.4 7.4 0 1 0 -14.8 0zM430.22 159.63 a7.4 7.4 0 1 0 14.8 0 a7.4 7.4 0 1 0 -14.8 0zM366.13 196.63 a7.4 7.4 0 1 0 14.8 0 a7.4 7.4 0 1 0 -14.8 0zM302.04 159.63 a7.4 7.4 0 1 0 14.8 0 a7.4 7.4 0 1 0 -14.8 0zM302.04 85.63 a7.4 7.4 0 1 0 14.8 0 a7.4 7.4 0 1 0 -14.8 0zM366.13 270.63 a7.4 7.4 0 1 0 14.8 0 a7.4 7.4 0 1 0 -14.8 0zM430.22 307.63 a7.4 7.4 0 1 0 14.8 0 a7.4 7.4 0 1 0 -14.8 0zM430.22 381.63 a7.4 7.4 0 1 0 14.8 0 a7.4 7.4 0 1 0 -14.8 0zM366.13 418.63 a7.4 7.4 0 1 0 14.8 0 a7.4 7.4 0 1 0 -14.8 0zM302.04 381.63 a7.4 7.4 0 1 0 14.8 0 a7.4 7.4 0 1 0 -14.8 0zM302.04 307.63 a7.4 7.4 0 1 0 14.8 0 a7.4 7.4 0 1 0 -14.8 0zM366.13 492.63 a7.4 7.4 0 1 0 14.8 0 a7.4 7.4 0 1 0 -14.8 0zM302.04 529.63 a7.4 7.4 0 1 0 14.8 0 a7.4 7.4 0 1 0 -14.8 0zM430.22 -62.37 a7.4 7.4 0 1 0 14.8 0 a7.4 7.4 0 1 0 -14.8 0zM494.3 -25.37 a7.4 7.4 0 1 0 14.8 0 a7.4 7.4 0 1 0 -14.8 0zM494.3 48.63 a7.4 7.4 0 1 0 14.8 0 a7.4 7.4 0 1 0 -14.8 0zM366.13 -25.37 a7.4 7.4 0 1 0 14.8 0 a7.4 7.4 0 1 0 -14.8 0zM494.3 196.63 a7.4 7.4 0 1 0 14.8 0 a7.4 7.4 0 1 0 -14.8 0zM494.3 270.63 a7.4 7.4 0 1 0 14.8 0 a7.4 7.4 0 1 0 -14.8 0zM494.3 492.63 a7.4 7.4 0 1 0 14.8 0 a7.4 7.4 0 1 0 -14.8 0zM558.39 529.63 a7.4 7.4 0 1 0 14.8 0 a7.4 7.4 0 1 0 -14.8 0zM558.39 603.63 a7.4 7.4 0 1 0 14.8 0 a7.4 7.4 0 1 0 -14.8 0zM494.3 640.63 a7.4 7.4 0 1 0 14.8 0 a7.4 7.4 0 1 0 -14.8 0zM430.22 603.63 a7.4 7.4 0 1 0 14.8 0 a7.4 7.4 0 1 0 -14.8 0zM430.22 529.63 a7.4 7.4 0 1 0 14.8 0 a7.4 7.4 0 1 0 -14.8 0zM558.39 -62.37 a7.4 7.4 0 1 0 14.8 0 a7.4 7.4 0 1 0 -14.8 0zM622.48 -25.37 a7.4 7.4 0 1 0 14.8 0 a7.4 7.4 0 1 0 -14.8 0zM622.48 48.63 a7.4 7.4 0 1 0 14.8 0 a7.4 7.4 0 1 0 -14.8 0zM558.39 85.63 a7.4 7.4 0 1 0 14.8 0 a7.4 7.4 0 1 0 -14.8 0zM686.57 85.63 a7.4 7.4 0 1 0 14.8 0 a7.4 7.4 0 1 0 -14.8 0zM686.57 159.63 a7.4 7.4 0 1 0 14.8 0 a7.4 7.4 0 1 0 -14.8 0zM622.48 196.63 a7.4 7.4 0 1 0 14.8 0 a7.4 7.4 0 1 0 -14.8 0zM558.39 159.63 a7.4 7.4 0 1 0 14.8 0 a7.4 7.4 0 1 0 -14.8 0zM622.48 270.63 a7.4 7.4 0 1 0 14.8 0 a7.4 7.4 0 1 0 -14.8 0zM558.39 307.63 a7.4 7.4 0 1 0 14.8 0 a7.4 7.4 0 1 0 -14.8 0zM686.57 307.63 a7.4 7.4 0 1 0 14.8 0 a7.4 7.4 0 1 0 -14.8 0zM686.57 381.63 a7.4 7.4 0 1 0 14.8 0 a7.4 7.4 0 1 0 -14.8 0zM622.48 418.63 a7.4 7.4 0 1 0 14.8 0 a7.4 7.4 0 1 0 -14.8 0zM558.39 381.63 a7.4 7.4 0 1 0 14.8 0 a7.4 7.4 0 1 0 -14.8 0zM750.65 48.63 a7.4 7.4 0 1 0 14.8 0 a7.4 7.4 0 1 0 -14.8 0zM814.74 85.63 a7.4 7.4 0 1 0 14.8 0 a7.4 7.4 0 1 0 -14.8 0zM814.74 159.63 a7.4 7.4 0 1 0 14.8 0 a7.4 7.4 0 1 0 -14.8 0zM750.65 196.63 a7.4 7.4 0 1 0 14.8 0 a7.4 7.4 0 1 0 -14.8 0zM750.65 270.63 a7.4 7.4 0 1 0 14.8 0 a7.4 7.4 0 1 0 -14.8 0zM814.74 307.63 a7.4 7.4 0 1 0 14.8 0 a7.4 7.4 0 1 0 -14.8 0zM814.74 381.63 a7.4 7.4 0 1 0 14.8 0 a7.4 7.4 0 1 0 -14.8 0zM750.65 418.63 a7.4 7.4 0 1 0 14.8 0 a7.4 7.4 0 1 0 -14.8 0zM878.83 492.63 a7.4 7.4 0 1 0 14.8 0 a7.4 7.4 0 1 0 -14.8 0zM942.92 529.63 a7.4 7.4 0 1 0 14.8 0 a7.4 7.4 0 1 0 -14.8 0zM942.92 603.63 a7.4 7.4 0 1 0 14.8 0 a7.4 7.4 0 1 0 -14.8 0zM878.83 640.63 a7.4 7.4 0 1 0 14.8 0 a7.4 7.4 0 1 0 -14.8 0zM814.74 603.63 a7.4 7.4 0 1 0 14.8 0 a7.4 7.4 0 1 0 -14.8 0zM814.74 529.63 a7.4 7.4 0 1 0 14.8 0 a7.4 7.4 0 1 0 -14.8 0zM1007.01 270.63 a7.4 7.4 0 1 0 14.8 0 a7.4 7.4 0 1 0 -14.8 0zM1071.09 307.63 a7.4 7.4 0 1 0 14.8 0 a7.4 7.4 0 1 0 -14.8 0zM1071.09 381.63 a7.4 7.4 0 1 0 14.8 0 a7.4 7.4 0 1 0 -14.8 0zM1007.01 418.63 a7.4 7.4 0 1 0 14.8 0 a7.4 7.4 0 1 0 -14.8 0zM942.92 381.63 a7.4 7.4 0 1 0 14.8 0 a7.4 7.4 0 1 0 -14.8 0zM942.92 307.63 a7.4 7.4 0 1 0 14.8 0 a7.4 7.4 0 1 0 -14.8 0zM1071.09 -62.37 a7.4 7.4 0 1 0 14.8 0 a7.4 7.4 0 1 0 -14.8 0zM1135.18 -25.37 a7.4 7.4 0 1 0 14.8 0 a7.4 7.4 0 1 0 -14.8 0zM1135.18 48.63 a7.4 7.4 0 1 0 14.8 0 a7.4 7.4 0 1 0 -14.8 0zM1071.09 85.63 a7.4 7.4 0 1 0 14.8 0 a7.4 7.4 0 1 0 -14.8 0zM1007.01 48.63 a7.4 7.4 0 1 0 14.8 0 a7.4 7.4 0 1 0 -14.8 0zM1007.01 -25.37 a7.4 7.4 0 1 0 14.8 0 a7.4 7.4 0 1 0 -14.8 0zM1199.27 -62.37 a7.4 7.4 0 1 0 14.8 0 a7.4 7.4 0 1 0 -14.8 0zM1263.36 -25.37 a7.4 7.4 0 1 0 14.8 0 a7.4 7.4 0 1 0 -14.8 0zM1263.36 48.63 a7.4 7.4 0 1 0 14.8 0 a7.4 7.4 0 1 0 -14.8 0zM1199.27 85.63 a7.4 7.4 0 1 0 14.8 0 a7.4 7.4 0 1 0 -14.8 0zM1199.27 159.63 a7.4 7.4 0 1 0 14.8 0 a7.4 7.4 0 1 0 -14.8 0zM1263.36 196.63 a7.4 7.4 0 1 0 14.8 0 a7.4 7.4 0 1 0 -14.8 0zM1263.36 270.63 a7.4 7.4 0 1 0 14.8 0 a7.4 7.4 0 1 0 -14.8 0zM1199.27 307.63 a7.4 7.4 0 1 0 14.8 0 a7.4 7.4 0 1 0 -14.8 0zM1135.18 270.63 a7.4 7.4 0 1 0 14.8 0 a7.4 7.4 0 1 0 -14.8 0zM1135.18 196.63 a7.4 7.4 0 1 0 14.8 0 a7.4 7.4 0 1 0 -14.8 0zM1327.44 307.63 a7.4 7.4 0 1 0 14.8 0 a7.4 7.4 0 1 0 -14.8 0zM1327.44 381.63 a7.4 7.4 0 1 0 14.8 0 a7.4 7.4 0 1 0 -14.8 0zM1263.36 418.63 a7.4 7.4 0 1 0 14.8 0 a7.4 7.4 0 1 0 -14.8 0zM1199.27 381.63 a7.4 7.4 0 1 0 14.8 0 a7.4 7.4 0 1 0 -14.8 0zM1263.36 492.63 a7.4 7.4 0 1 0 14.8 0 a7.4 7.4 0 1 0 -14.8 0zM1199.27 529.63 a7.4 7.4 0 1 0 14.8 0 a7.4 7.4 0 1 0 -14.8 0zM1135.18 492.63 a7.4 7.4 0 1 0 14.8 0 a7.4 7.4 0 1 0 -14.8 0zM1135.18 418.63 a7.4 7.4 0 1 0 14.8 0 a7.4 7.4 0 1 0 -14.8 0zM1327.44 529.63 a7.4 7.4 0 1 0 14.8 0 a7.4 7.4 0 1 0 -14.8 0zM1327.44 603.63 a7.4 7.4 0 1 0 14.8 0 a7.4 7.4 0 1 0 -14.8 0zM1263.36 640.63 a7.4 7.4 0 1 0 14.8 0 a7.4 7.4 0 1 0 -14.8 0zM1199.27 603.63 a7.4 7.4 0 1 0 14.8 0 a7.4 7.4 0 1 0 -14.8 0zM1391.53 48.63 a7.4 7.4 0 1 0 14.8 0 a7.4 7.4 0 1 0 -14.8 0zM1455.62 85.63 a7.4 7.4 0 1 0 14.8 0 a7.4 7.4 0 1 0 -14.8 0zM1455.62 159.63 a7.4 7.4 0 1 0 14.8 0 a7.4 7.4 0 1 0 -14.8 0zM1391.53 196.63 a7.4 7.4 0 1 0 14.8 0 a7.4 7.4 0 1 0 -14.8 0zM1327.44 159.63 a7.4 7.4 0 1 0 14.8 0 a7.4 7.4 0 1 0 -14.8 0zM1327.44 85.63 a7.4 7.4 0 1 0 14.8 0 a7.4 7.4 0 1 0 -14.8 0zM1391.53 492.63 a7.4 7.4 0 1 0 14.8 0 a7.4 7.4 0 1 0 -14.8 0zM1455.62 529.63 a7.4 7.4 0 1 0 14.8 0 a7.4 7.4 0 1 0 -14.8 0zM1455.62 603.63 a7.4 7.4 0 1 0 14.8 0 a7.4 7.4 0 1 0 -14.8 0zM1391.53 640.63 a7.4 7.4 0 1 0 14.8 0 a7.4 7.4 0 1 0 -14.8 0zM1455.62 -62.37 a7.4 7.4 0 1 0 14.8 0 a7.4 7.4 0 1 0 -14.8 0zM1519.71 -25.37 a7.4 7.4 0 1 0 14.8 0 a7.4 7.4 0 1 0 -14.8 0zM1519.71 48.63 a7.4 7.4 0 1 0 14.8 0 a7.4 7.4 0 1 0 -14.8 0zM1391.53 -25.37 a7.4 7.4 0 1 0 14.8 0 a7.4 7.4 0 1 0 -14.8 0zM1455.62 381.63 a7.4 7.4 0 1 0 14.8 0 a7.4 7.4 0 1 0 -14.8 0zM1519.71 418.63 a7.4 7.4 0 1 0 14.8 0 a7.4 7.4 0 1 0 -14.8 0zM1519.71 492.63 a7.4 7.4 0 1 0 14.8 0 a7.4 7.4 0 1 0 -14.8 0zM1391.53 418.63 a7.4 7.4 0 1 0 14.8 0 a7.4 7.4 0 1 0 -14.8 0zM1583.79 529.63 a7.4 7.4 0 1 0 14.8 0 a7.4 7.4 0 1 0 -14.8 0zM1583.79 603.63 a7.4 7.4 0 1 0 14.8 0 a7.4 7.4 0 1 0 -14.8 0zM1519.71 640.63 a7.4 7.4 0 1 0 14.8 0 a7.4 7.4 0 1 0 -14.8 0z" fill="#03305d"></path></g><defs><mask id="SvgjsMask1074"><rect width="1440" height="560" fill="#ffffff"></rect></mask><linearGradient x1="15.28%" y1="-39.29%" x2="84.72%" y2="139.29%" gradientUnits="userSpaceOnUse" id="SvgjsLinearGradient1075"><stop stop-color="#0e2a47" offset="0"></stop><stop stop-color="rgba(0, 0, 0, 1)" offset="1"></stop></linearGradient></defs></svg>