<svg xmlns="http://www.w3.org/2000/svg" version="1.1" xmlns:xlink="http://www.w3.org/1999/xlink" xmlns:svgjs="http://svgjs.dev/svgjs" width="1440" height="560" preserveAspectRatio="none" viewBox="0 0 1440 560"><g mask="url(&quot;#SvgjsMask2538&quot;)" fill="none"><rect width="1440" height="560" x="0" y="0" fill="url(&quot;#SvgjsLinearGradient2539&quot;)"></rect><path d="M0 0L489.38 0L0 127.08z" fill="rgba(255, 255, 255, .1)"></path><path d="M0 127.08L489.38 0L663.0699999999999 0L0 131.7z" fill="rgba(255, 255, 255, .075)"></path><path d="M0 131.7L663.0699999999999 0L1042.96 0L0 186.70999999999998z" fill="rgba(255, 255, 255, .05)"></path><path d="M0 186.70999999999998L1042.96 0L1220.68 0L0 266.52z" fill="rgba(255, 255, 255, .025)"></path><path d="M1440 560L1301.31 560L1440 314.52z" fill="rgba(0, 0, 0, .1)"></path><path d="M1440 314.52L1301.31 560L1268.96 560L1440 211.01999999999998z" fill="rgba(0, 0, 0, .075)"></path><path d="M1440 211.01999999999998L1268.96 560L527.26 560L1440 143.98999999999998z" fill="rgba(0, 0, 0, .05)"></path><path d="M1440 143.99L527.26 560L320.03 560L1440 101.94000000000001z" fill="rgba(0, 0, 0, .025)"></path></g><defs><mask id="SvgjsMask2538"><rect width="1440" height="560" fill="#ffffff"></rect></mask><linearGradient x1="0%" y1="50%" x2="100%" y2="50%" gradientUnits="userSpaceOnUse" id="SvgjsLinearGradient2539"><stop stop-color="rgba(255, 255, 255, 1)" offset="0"></stop><stop stop-color="rgba(255, 255, 255, 1)" offset="1"></stop></linearGradient></defs></svg>