<svg xmlns="http://www.w3.org/2000/svg" version="1.1" xmlns:xlink="http://www.w3.org/1999/xlink" xmlns:svgjs="http://svgjs.dev/svgjs" width="2000" height="1000" preserveAspectRatio="none" viewBox="0 0 2000 1000"><g mask="url(&quot;#SvgjsMask1830&quot;)" fill="none"><rect width="2000" height="1000" x="0" y="0" fill="url(&quot;#SvgjsLinearGradient1831&quot;)"></rect><path d="M2000 0L1049.3899999999999 0L2000 284.47z" fill="rgba(255, 255, 255, .1)"></path><path d="M1049.3899999999999 0L2000 284.47L2000 646.12L771.5999999999999 0z" fill="rgba(255, 255, 255, .075)"></path><path d="M771.5999999999999 0L2000 646.12L2000 811.83L685.53 0z" fill="rgba(255, 255, 255, .05)"></path><path d="M685.53 0L2000 811.83L2000 879.57L267.36999999999995 0z" fill="rgba(255, 255, 255, .025)"></path><path d="M0 1000L437.88 1000L0 886.76z" fill="rgba(0, 0, 0, .1)"></path><path d="M0 886.76L437.88 1000L1049.22 1000L0 531.06z" fill="rgba(0, 0, 0, .075)"></path><path d="M0 531.06L1049.22 1000L1536.65 1000L0 207.50999999999993z" fill="rgba(0, 0, 0, .05)"></path><path d="M0 207.51L1536.65 1000L1659.52 1000L0 76.13999999999999z" fill="rgba(0, 0, 0, .025)"></path></g><defs><mask id="SvgjsMask1830"><rect width="2000" height="1000" fill="#ffffff"></rect></mask><linearGradient x1="12.5%" y1="-25%" x2="87.5%" y2="125%" gradientUnits="userSpaceOnUse" id="SvgjsLinearGradient1831"><stop stop-color="rgba(255, 255, 255, 1)" offset="0"></stop><stop stop-color="rgba(255, 255, 255, 1)" offset="1"></stop></linearGradient></defs></svg>