<svg xmlns="http://www.w3.org/2000/svg" version="1.1" xmlns:xlink="http://www.w3.org/1999/xlink" xmlns:svgjs="http://svgjs.dev/svgjs" width="1440" height="560" preserveAspectRatio="none" viewBox="0 0 1440 560"><g mask="url(&quot;#SvgjsMask1716&quot;)" fill="none"><rect width="1440" height="560" x="0" y="0" fill="url(&quot;#SvgjsLinearGradient1717&quot;)"></rect><path d="M1440 0L1370.22 0L1440 245.18z" fill="rgba(255, 255, 255, .1)"></path><path d="M1370.22 0L1440 245.18L1440 386.37L713.24 0z" fill="rgba(255, 255, 255, .075)"></path><path d="M713.24 0L1440 386.37L1440 393.65L472.38 0z" fill="rgba(255, 255, 255, .05)"></path><path d="M472.38 0L1440 393.65L1440 400.45L270.16999999999996 0z" fill="rgba(255, 255, 255, .025)"></path><path d="M0 560L438.26 560L0 424.43z" fill="rgba(0, 0, 0, .1)"></path><path d="M0 424.43L438.26 560L881.03 560L0 272.5z" fill="rgba(0, 0, 0, .075)"></path><path d="M0 272.5L881.03 560L944.48 560L0 108.46000000000001z" fill="rgba(0, 0, 0, .05)"></path><path d="M0 108.46000000000004L944.48 560L1268.48 560L0 54.360000000000035z" fill="rgba(0, 0, 0, .025)"></path></g><defs><mask id="SvgjsMask1716"><rect width="1440" height="560" fill="#ffffff"></rect></mask><linearGradient x1="100%" y1="50%" x2="0%" y2="50%" gradientUnits="userSpaceOnUse" id="SvgjsLinearGradient1717"><stop stop-color="rgba(81, 156, 233, 1)" offset="0"></stop><stop stop-color="rgba(51, 124, 215, 1)" offset="1"></stop></linearGradient></defs></svg>